<mxfile host="app.diagrams.net" agent="Mozilla/5.0 (Windows NT 10.0; Win64; x64; rv:131.0) Gecko/20100101 Firefox/131.0" version="24.7.17">
  <diagram name="Page-1" id="Q8Id8piQqQ-BWA48hCKr">
    <mxGraphModel dx="2058" dy="545" grid="1" gridSize="10" guides="1" tooltips="1" connect="1" arrows="1" fold="1" page="1" pageScale="1" pageWidth="850" pageHeight="1100" math="0" shadow="0">
      <root>
        <mxCell id="0" />
        <mxCell id="1" parent="0" />
        <mxCell id="bhTMmYwkQgpt28V5D3FY-1" value="" style="rounded=0;whiteSpace=wrap;html=1;" vertex="1" parent="1">
          <mxGeometry x="-20" y="160" width="620" height="340" as="geometry" />
        </mxCell>
        <mxCell id="bhTMmYwkQgpt28V5D3FY-2" value="" style="sketch=0;pointerEvents=1;shadow=0;dashed=0;html=1;strokeColor=none;fillColor=#505050;labelPosition=center;verticalLabelPosition=bottom;verticalAlign=top;outlineConnect=0;align=center;shape=mxgraph.office.devices.nic;" vertex="1" parent="1">
          <mxGeometry x="-30" y="290" width="57" height="38" as="geometry" />
        </mxCell>
        <mxCell id="bhTMmYwkQgpt28V5D3FY-4" value="AWS ISP" style="ellipse;whiteSpace=wrap;html=1;" vertex="1" parent="1">
          <mxGeometry x="-370" y="269" width="120" height="80" as="geometry" />
        </mxCell>
        <mxCell id="bhTMmYwkQgpt28V5D3FY-30" style="edgeStyle=orthogonalEdgeStyle;rounded=0;orthogonalLoop=1;jettySize=auto;html=1;exitX=1;exitY=0;exitDx=0;exitDy=0;entryX=0;entryY=0.5;entryDx=0;entryDy=0;" edge="1" parent="1" source="bhTMmYwkQgpt28V5D3FY-6" target="bhTMmYwkQgpt28V5D3FY-29">
          <mxGeometry relative="1" as="geometry" />
        </mxCell>
        <mxCell id="bhTMmYwkQgpt28V5D3FY-6" value="Host NIC" style="text;html=1;align=center;verticalAlign=middle;whiteSpace=wrap;rounded=0;" vertex="1" parent="1">
          <mxGeometry x="40" y="294" width="60" height="30" as="geometry" />
        </mxCell>
        <mxCell id="bhTMmYwkQgpt28V5D3FY-7" value="" style="endArrow=classic;html=1;rounded=0;" edge="1" parent="1" target="bhTMmYwkQgpt28V5D3FY-2">
          <mxGeometry width="50" height="50" relative="1" as="geometry">
            <mxPoint x="-250" y="310" as="sourcePoint" />
            <mxPoint x="-200" y="260" as="targetPoint" />
          </mxGeometry>
        </mxCell>
        <mxCell id="bhTMmYwkQgpt28V5D3FY-14" value="" style="whiteSpace=wrap;html=1;aspect=fixed;" vertex="1" parent="1">
          <mxGeometry x="400" y="169" width="180" height="180" as="geometry" />
        </mxCell>
        <mxCell id="bhTMmYwkQgpt28V5D3FY-15" value="" style="image;sketch=0;aspect=fixed;html=1;points=[];align=center;fontSize=12;image=img/lib/mscae/Docker.svg;" vertex="1" parent="1">
          <mxGeometry x="411.22" y="180" width="48.78" height="40" as="geometry" />
        </mxCell>
        <mxCell id="bhTMmYwkQgpt28V5D3FY-16" value="" style="sketch=0;pointerEvents=1;shadow=0;dashed=0;html=1;strokeColor=none;fillColor=#505050;labelPosition=center;verticalLabelPosition=bottom;verticalAlign=top;outlineConnect=0;align=center;shape=mxgraph.office.devices.nic;" vertex="1" parent="1">
          <mxGeometry x="397" y="311" width="63" height="38" as="geometry" />
        </mxCell>
        <mxCell id="bhTMmYwkQgpt28V5D3FY-17" value="Docker NIC" style="text;html=1;align=center;verticalAlign=middle;whiteSpace=wrap;rounded=0;" vertex="1" parent="1">
          <mxGeometry x="403.59" y="281" width="60" height="30" as="geometry" />
        </mxCell>
        <mxCell id="bhTMmYwkQgpt28V5D3FY-18" value="bridge Network" style="text;html=1;align=center;verticalAlign=middle;whiteSpace=wrap;rounded=0;" vertex="1" parent="1">
          <mxGeometry x="463.59000000000003" y="311" width="60" height="30" as="geometry" />
        </mxCell>
        <mxCell id="bhTMmYwkQgpt28V5D3FY-20" value="&lt;b&gt;Host&lt;/b&gt;" style="text;html=1;align=center;verticalAlign=middle;whiteSpace=wrap;rounded=0;" vertex="1" parent="1">
          <mxGeometry x="-60" y="130" width="140" height="30" as="geometry" />
        </mxCell>
        <mxCell id="bhTMmYwkQgpt28V5D3FY-26" value="" style="ellipse;whiteSpace=wrap;html=1;aspect=fixed;" vertex="1" parent="1">
          <mxGeometry x="400" y="220" width="40" height="40" as="geometry" />
        </mxCell>
        <mxCell id="bhTMmYwkQgpt28V5D3FY-29" value="c-1" style="text;html=1;align=center;verticalAlign=middle;whiteSpace=wrap;rounded=0;" vertex="1" parent="1">
          <mxGeometry x="390" y="225" width="60" height="30" as="geometry" />
        </mxCell>
        <mxCell id="bhTMmYwkQgpt28V5D3FY-35" value="&lt;div&gt;1. Containers using hostn/w will not get IP address&lt;/div&gt;&lt;div&gt;2. It means containers are sharing host IP address&lt;br&gt;&lt;/div&gt;&amp;nbsp;and host port" style="text;html=1;align=center;verticalAlign=middle;whiteSpace=wrap;rounded=0;" vertex="1" parent="1">
          <mxGeometry x="-280" y="550" width="809" height="30" as="geometry" />
        </mxCell>
        <mxCell id="bhTMmYwkQgpt28V5D3FY-36" value="&lt;font style=&quot;font-size: 24px;&quot;&gt;Host Networking &lt;/font&gt;" style="text;html=1;align=center;verticalAlign=middle;whiteSpace=wrap;rounded=0;" vertex="1" parent="1">
          <mxGeometry x="120" y="100" width="260" height="30" as="geometry" />
        </mxCell>
      </root>
    </mxGraphModel>
  </diagram>
</mxfile>
